<svg xmlns="http://www.w3.org/2000/svg" xmlns:svg="http://www.w3.org/2000/svg" xmlns:xlink="http://www.w3.org/1999/xlink" version="1.0" height="1050pt" width="1259.9999999999995pt" viewBox="244.99999999999997 -103.00000000000004 1267.9999999999995 1056" ><defs><style type="text/css">
            @font-face {
                font-family: 'lt_regular';
                src: url('https://app.creately.com/diagram/assets/fonts/lato/lt-regular-webfont.woff2') format('woff2'),
                    url('https://app.creately.com/diagram/assets/fonts/lato/lt-regular-webfont.woff') format('woff');
                font-weight: normal;
                font-style: normal;
            }
            @font-face {
                font-family: 'noto_regular';
                src: url('https://app.creately.com/diagram/assets/fonts/noto/noto-regular.woff') format('woff'),
                     url('https://app.creately.com/diagram/assets/fonts/noto/noto-regular.woff2') format('woff2');
                font-weight: normal;
                font-style: normal;
            }
        p {
            margin: 0;
        }
        </style></defs><defs><style>
            span{ display: inline-block; }
        </style></defs><g id="Zdirer3zOpA"><g transform="translate(850.0000000000001 110)"><path d="M 0,0 L 209.99999999999983,0 L 209.99999999999983,114.99999999999997 L 35,114.99999999999997 L 15,129.99999999999997 L 15,114.99999999999997 L 0,114.99999999999997 L 0,0 Z" fill="rgb(5,79,122)" stroke="#000000" stroke-width="2" stroke-linecap="round" stroke-linejoin="round" stroke-dasharray="0 0"/></g><g transform="translate(861, 138) rotate(0, 94, 37)" width="188" height="74"><text text-decoration="none" x="8" fill="#ffffff" font-size="10pt" font-family="lt_regular"  y="14">Main&#160;</text><text text-decoration="none" x="39" fill="#ffffff" font-size="10pt" font-family="lt_regular"  y="14">Activity&#160;</text><text text-decoration="none" x="87" fill="#ffffff" font-size="10pt" font-family="lt_regular"  y="14">that&#160;</text><text text-decoration="none" x="113" fill="#ffffff" font-size="10pt" font-family="lt_regular"  y="14">starts&#160;</text><text text-decoration="none" x="149" fill="#ffffff" font-size="10pt" font-family="lt_regular"  y="14">when&#160;</text><text text-decoration="none" x="25.5" fill="#ffffff" font-size="10pt" font-family="lt_regular"  y="32">the&#160;</text><text text-decoration="none" x="47.5" fill="#ffffff" font-size="10pt" font-family="lt_regular"  y="32">app&#160;</text><text text-decoration="none" x="70.5" fill="#ffffff" font-size="10pt" font-family="lt_regular"  y="32">is&#160;</text><text text-decoration="none" x="82.5" fill="#ffffff" font-size="10pt" font-family="lt_regular"  y="32">loaded.&#160;&#160;</text><text text-decoration="none" x="128.5" fill="#ffffff" font-size="10pt" font-family="lt_regular"  y="32">Starts&#160;</text><text text-decoration="none" x="2" fill="#ffffff" font-size="10pt" font-family="lt_regular"  y="50">different&#160;</text><text text-decoration="none" x="56" fill="#ffffff" font-size="10pt" font-family="lt_regular"  y="50">activities&#160;</text><text text-decoration="none" x="110" fill="#ffffff" font-size="10pt" font-family="lt_regular"  y="50">depending&#160;</text><text text-decoration="none" x="172" fill="#ffffff" font-size="10pt" font-family="lt_regular"  y="50">on&#160;</text><text text-decoration="none" x="19.5" fill="#ffffff" font-size="10pt" font-family="lt_regular"  y="69">which&#160;</text><text text-decoration="none" x="55.5" fill="#ffffff" font-size="10pt" font-family="lt_regular"  y="69">buttons&#160;</text><text text-decoration="none" x="102.5" fill="#ffffff" font-size="10pt" font-family="lt_regular"  y="69">are&#160;</text><text text-decoration="none" x="123.5" fill="#ffffff" font-size="10pt" font-family="lt_regular"  y="69">pressed</text><text text-decoration="none" x="168.5" fill="#4b4b4b" font-size="10pt" font-family="noto_regular"  y="69"></text></g></g><g id="2VAfzMFlkdT"><g transform="translate(400.0000000000001 40)"><rect x="0" y="0" width="50.5" height="150.5" fill="rgba(255,255,255,0.01)" stroke="rgba(255,255,255,0.01)"/><path d="M 12.785,10.097 C 12.785,10.097 12.559,9.993 12.559,9.469999999999999 C 12.559,8.946999999999997 12.447,8.53 12.447,7.797999999999999 C 12.447,7.065999999999999 12.896999999999998,6.230999999999999 13.236999999999998,5.184999999999999 C 13.574999999999998,4.139999999999999 15.041999999999998,2.3639999999999985 15.718999999999998,2.049999999999999 C 16.395999999999997,1.736999999999999 18.990999999999996,0.2739999999999989 20.570999999999998,0.2739999999999989 C 22.150999999999996,0.2739999999999989 24.296,0.06499999999999892 25.311,0.9009999999999989 C 26.326,1.736999999999999 27.793,3.094999999999999 28.47,3.9309999999999987 C 29.148,4.767999999999999 30.163,6.751999999999999 30.049999999999997,8.005999999999998 C 29.936999999999998,9.261 29.711,10.617999999999999 29.259999999999998,11.350999999999999 L 28.808999999999997,12.081 C 28.808999999999997,12.081 28.244999999999997,13.857999999999999 28.244999999999997,14.172 C 28.244999999999997,14.486000000000002 27.793999999999997,14.903 27.793999999999997,14.903 C 27.793999999999997,14.903 27.567999999999998,15.634 26.664999999999996,15.634 C 26.664999999999996,15.634 26.438999999999997,16.574 26.326999999999995,18.246000000000002 C 26.213999999999995,19.918000000000003 26.213999999999995,21.068 28.018999999999995,21.068 L 28.695999999999994,20.963 C 28.695999999999994,20.963 30.727999999999994,21.59 30.840999999999994,22.009 C 30.952999999999992,22.426000000000002 36.25699999999999,22.948 37.16,23.263 C 38.062999999999995,23.576 39.190999999999995,23.784000000000002 40.31999999999999,25.039 C 40.31999999999999,25.039 41.89999999999999,26.814 41.785999999999994,30.891000000000002 C 41.785999999999994,30.891000000000002 42.23799999999999,37.265 42.687999999999995,37.892 C 42.687999999999995,37.892 43.705,38.623000000000005 41.559999999999995,45.207 C 41.559999999999995,45.207 41.221999999999994,49.491 37.72299999999999,50.851 L 40.09299999999999,64.539 C 40.09299999999999,64.539 39.98099999999999,66.733 40.20499999999999,67.257 C 40.43199999999999,67.77900000000001 40.99499999999999,68.929 40.99499999999999,69.34700000000001 C 40.99499999999999,69.76400000000001 41.10799999999999,72.27300000000001 41.10799999999999,72.27300000000001 C 41.10799999999999,72.27300000000001 41.67199999999999,73.52700000000002 40.54499999999999,73.52700000000002 C 40.54499999999999,73.52700000000002 41.55999999999999,75.19900000000001 40.99499999999999,78.33400000000002 C 40.99499999999999,78.33400000000002 41.44699999999999,78.96200000000002 41.44699999999999,79.79800000000002 C 41.44699999999999,80.63400000000001 41.89899999999999,82.72400000000002 41.89899999999999,82.72400000000002 L 42.91399999999999,94.53300000000002 C 42.91399999999999,94.53300000000002 42.91399999999999,98.39900000000002 42.12399999999999,100.17600000000002 C 42.12399999999999,100.17600000000002 41.89899999999999,102.78800000000001 42.68699999999999,105.08700000000002 C 42.68699999999999,105.08700000000002 43.590999999999994,106.44500000000002 42.80099999999999,109.47700000000002 C 42.80099999999999,109.47700000000002 43.816999999999986,115.22400000000002 43.92899999999999,116.68700000000001 C 43.92899999999999,116.68700000000001 44.04199999999999,116.47800000000001 44.26699999999999,118.46300000000001 C 44.26699999999999,118.46300000000001 43.816999999999986,119.50800000000001 44.04199999999999,120.239 C 44.26699999999999,120.97 43.47699999999999,129.435 43.81599999999999,131.107 L 43.70299999999999,133.824 C 43.70299999999999,133.824 43.59099999999999,134.137 43.59099999999999,134.452 C 43.59099999999999,134.765 44.83099999999999,135.6 44.944999999999986,136.124 C 45.05699999999999,136.646 45.508999999999986,136.855 45.05699999999999,137.899 C 45.05699999999999,137.899 45.05699999999999,139.466 44.71899999999999,140.617 L 46.524999999999984,143.01999999999998 C 46.524999999999984,143.01999999999998 46.75099999999998,143.647 47.539999999999985,143.856 C 48.33099999999998,144.065 49.57199999999999,144.692 49.45899999999998,145.737 L 50.02299999999998,146.573 L 50.24899999999998,147.931 L 50.24899999999998,148.976 C 50.24899999999998,148.976 42.68699999999998,150.439 41.10799999999998,150.23 C 41.10799999999998,150.23 38.511999999999986,149.917 38.62599999999998,148.45399999999998 L 38.62599999999998,147.51399999999998 C 38.62599999999998,147.51399999999998 37.271999999999984,147.72299999999998 36.707999999999984,147.72299999999998 C 36.14299999999999,147.72299999999998 34.22499999999999,147.09599999999998 33.999999999999986,146.261 L 34.22499999999999,143.021 L 34.67599999999999,142.39399999999998 L 33.54799999999999,139.78199999999998 C 33.54799999999999,139.78199999999998 33.65999999999999,135.18399999999997 33.65999999999999,134.765 C 33.65999999999999,134.34699999999998 33.20999999999999,132.362 33.20999999999999,132.362 L 32.98299999999999,127.973 C 32.98299999999999,127.973 33.09499999999999,125.67399999999999 33.09499999999999,125.36 C 33.09499999999999,125.047 32.64499999999999,122.853 32.64499999999999,122.853 C 32.64499999999999,122.853 32.87099999999999,118.672 32.64499999999999,118.25399999999999 C 32.41899999999999,117.83599999999998 32.30599999999999,116.89599999999999 32.30599999999999,116.89599999999999 L 31.74199999999999,112.92499999999998 C 31.74199999999999,112.92499999999998 32.41999999999999,111.35699999999999 31.85499999999999,109.89399999999998 C 31.289999999999992,108.43099999999997 30.83899999999999,107.17799999999998 30.83899999999999,107.17799999999998 C 30.83899999999999,107.17799999999998 30.499999999999993,105.40099999999998 30.161999999999992,103.41499999999998 C 29.821999999999992,101.42999999999998 29.48399999999999,98.71199999999997 29.48399999999999,98.71199999999997 L 24.51899999999999,81.26199999999997 C 24.51899999999999,81.26199999999997 24.292999999999992,81.05299999999997 23.61699999999999,81.36599999999997 C 22.93899999999999,81.67899999999997 22.71399999999999,83.97699999999998 22.71399999999999,84.39599999999997 C 22.71399999999999,84.81399999999998 19.89299999999999,93.38199999999998 19.89299999999999,93.38199999999998 C 19.89299999999999,93.38199999999998 17.97499999999999,101.01099999999998 17.29699999999999,102.89199999999998 C 17.29699999999999,102.89199999999998 16.84599999999999,108.84799999999998 15.71799999999999,110.93899999999998 C 15.71799999999999,110.93899999999998 15.942999999999989,114.17799999999998 15.942999999999989,116.58199999999998 C 15.942999999999989,118.98599999999998 15.60499999999999,122.74799999999998 15.26599999999999,124.83799999999998 C 14.92799999999999,126.92699999999998 15.60499999999999,129.95799999999997 15.039999999999988,134.242 C 15.039999999999988,134.242 16.05599999999999,138.10899999999998 15.603999999999989,139.362 C 15.603999999999989,139.362 15.264999999999988,141.034 14.136999999999988,142.184 C 14.136999999999988,142.184 14.813999999999988,145.737 14.586999999999987,146.364 C 14.361999999999988,146.991 12.443999999999988,147.722 11.653999999999987,147.409 L 11.878999999999987,148.559 C 11.878999999999987,148.559 11.089999999999987,150.126 7.364999999999987,149.81199999999998 L 0.9319999999999871,149.39499999999998 C 0.9319999999999871,149.39499999999998 0.3689999999999871,148.87199999999999 0.3689999999999871,148.14 C 0.3689999999999871,148.14 0.029999999999987093,147.618 0.4819999999999871,146.886 L 0.9319999999999871,146.155 C 0.9319999999999871,146.155 0.593999999999987,145.319 2.173999999999987,143.961 C 2.173999999999987,143.961 3.189999999999987,143.543 3.301999999999987,142.812 L 3.979999999999987,141.03500000000003 L 4.543999999999987,139.36300000000003 C 4.543999999999987,139.36300000000003 1.4959999999999871,137.48300000000003 2.398999999999987,135.28900000000002 L 3.8659999999999872,133.93 C 3.8659999999999872,133.93 3.753999999999987,116.897 4.993999999999987,113.24000000000001 C 4.993999999999987,113.24000000000001 6.347999999999987,104.671 6.347999999999987,103.417 L 6.347999999999987,75.202 L 4.880999999999988,74.889 L 7.48,55.867 C 7.48,55.867 5.562,56.076 4.321000000000001,55.449 C 4.321000000000001,55.449 0.48500000000000076,53.986 0.48500000000000076,42.699999999999996 C 0.48500000000000076,42.699999999999996 1.7250000000000008,35.593999999999994 1.6130000000000007,33.294999999999995 C 1.6130000000000007,33.294999999999995 1.7250000000000008,29.637999999999995 4.321000000000001,27.860999999999994 L 5.562000000000001,26.919999999999995 C 5.562000000000001,26.919999999999995 11.092000000000002,25.247999999999994 12.220000000000002,24.308999999999994 C 13.349000000000002,23.368999999999993 13.912000000000003,23.263999999999996 13.912000000000003,23.263999999999996 L 15.266000000000002,22.009999999999994 L 15.830000000000002,21.905999999999995 L 15.491000000000001,18.665999999999997 C 15.491000000000001,18.665999999999997 14.250000000000002,15.635999999999997 14.588000000000001,14.694999999999997 C 14.588000000000001,14.694999999999997 13.46,15.007999999999997 13.46,14.172999999999996 C 13.46,14.172999999999996 12.445,12.081999999999997 13.009,10.828999999999997 L 12.785,10.096999999999998 Z" fill="rgb(40, 58, 133)" stroke="rgba(255,255,255,0.01)"/></g><g transform="translate(425.2500000000001, 200.5) rotate(0, 0, 0)" width="0" height="36"><text text-decoration="none" x="0" fill="#4b4b4b" font-size="10pt" font-family="noto_regular"  y="15"></text></g></g><g id="pUCBy7npM32"><g transform="translate(550 -99.99999999999997) rotate(-7.0167092985348594e-15)"><rect x="0" y="0" width="549.9999999999998" height="100.00000000000009" fill="rgb(99,201,213)" stroke="#010101" stroke-width="2" stroke-linecap="round" stroke-linejoin="round" stroke-dasharray="0 0"/></g><g transform="translate(560, -77.99999999999993) rotate(0, 0, 28)" width="397" height="56"><text text-decoration="none" x="0" fill="#ffffff" font-size="10pt" font-family="lt_regular"  y="14"></text><text text-decoration="none" x="0" fill="#ffffff" font-size="10pt" font-family="lt_regular"  y="32">Definition</text><text text-decoration="none" x="56" fill="#ffffff" font-size="10pt" font-family="lt_regular"  y="32"></text><text text-decoration="none" x="0" fill="#ffffff" font-size="10pt" font-family="lt_regular"  y="51">Provide&#160;</text><text text-decoration="none" x="47" fill="#ffffff" font-size="10pt" font-family="lt_regular"  y="51">a&#160;</text><text text-decoration="none" x="56" fill="#ffffff" font-size="10pt" font-family="lt_regular"  y="51">way&#160;</text><text text-decoration="none" x="82" fill="#ffffff" font-size="10pt" font-family="lt_regular"  y="51">for&#160;</text><text text-decoration="none" x="102" fill="#ffffff" font-size="10pt" font-family="lt_regular"  y="51">a&#160;</text><text text-decoration="none" x="111" fill="#ffffff" font-size="10pt" font-family="lt_regular"  y="51">user&#160;</text><text text-decoration="none" x="139" fill="#ffffff" font-size="10pt" font-family="lt_regular"  y="51">to&#160;</text><text text-decoration="none" x="154" fill="#ffffff" font-size="10pt" font-family="lt_regular"  y="51">keep&#160;</text><text text-decoration="none" x="185" fill="#ffffff" font-size="10pt" font-family="lt_regular"  y="51">track&#160;</text><text text-decoration="none" x="217" fill="#ffffff" font-size="10pt" font-family="lt_regular"  y="51">of&#160;</text><text text-decoration="none" x="232" fill="#ffffff" font-size="10pt" font-family="lt_regular"  y="51">the&#160;</text><text text-decoration="none" x="254" fill="#ffffff" font-size="10pt" font-family="lt_regular"  y="51">calories&#160;</text><text text-decoration="none" x="300" fill="#ffffff" font-size="10pt" font-family="lt_regular"  y="51">they&#160;</text><text text-decoration="none" x="329" fill="#ffffff" font-size="10pt" font-family="lt_regular"  y="51">have&#160;</text><text text-decoration="none" x="359" fill="#ffffff" font-size="10pt" font-family="lt_regular"  y="51">eaten</text><text text-decoration="none" x="391" fill="#4b4b4b" font-size="10pt" font-family="noto_regular"  y="51"></text></g></g><g id="WZM58YUK89B"><g transform="translate(750 -99.99999999999997)"><rect x="0" y="0" width="139.99999999999997" height="50.00000000000002" fill="rgba(255,255,255,0.01)" stroke="rgba(255,255,255,0.01)"/></g><g transform="translate(760, -89.99999999999997) rotate(0, 0, 0)" width="130" height="26"><text text-decoration="none" x="0" fill="rgb(0, 0, 0)" font-size="14pt" font-family="lt_regular"  y="20">Calorie&#160;</text><text text-decoration="none" x="0" fill="rgb(0, 0, 0)" font-size="14pt" font-family="lt_regular"  y="46">Counter</text><text text-decoration="none" x="70" fill="#4b4b4b" font-size="10pt" font-family="noto_regular"  y="46"></text></g></g><g id="Wg3SPU0UC1V"><g transform="translate(700 249.99999999999994)"><rect x="0" y="0" width="250" height="202.0000000000001" rx="2" ry="2" fill="rgb(5,79,122)" stroke="#000000" stroke-width="2" stroke-linecap="round" stroke-linejoin="round" stroke-dasharray="0 0"/><path d="M 0,30 L 250,30 M 0,58 L 250,58" fill="rgb(5,79,122)" stroke="#000000" stroke-width="2" stroke-linecap="round" stroke-linejoin="round" stroke-dasharray="0 0"/></g><g transform="translate(810, 254.99999999999994) rotate(0, 15, 0)" width="30" height="20"><text text-decoration="none" x="1" fill="#ffffff" font-size="10pt" font-family="lt_regular"  y="15">Main</text><text text-decoration="none" x="29" fill="#4b4b4b" font-size="10pt" font-family="noto_regular"  y="15"></text></g><g transform="translate(705, 284.99999999999994) rotate(0, 0, 0)" width="0" height="18"><text text-decoration="none" x="0" fill="#4b4b4b" font-size="10pt" font-family="noto_regular"  y="15"></text></g><g transform="translate(710, 312.99999999999994) rotate(0, 0, 0)" width="94" height="56"><text text-decoration="none" x="0" fill="#ffffff" font-size="10pt" font-family="lt_regular"  y="14">+sendMessage()</text><text text-decoration="none" x="92" fill="#ffffff" font-size="10pt" font-family="lt_regular"  y="14"></text><text text-decoration="none" x="0" fill="#ffffff" font-size="10pt" font-family="lt_regular"  y="32">+display()</text><text text-decoration="none" x="53" fill="#ffffff" font-size="10pt" font-family="lt_regular"  y="32"></text><text text-decoration="none" x="0" fill="#ffffff" font-size="10pt" font-family="lt_regular"  y="51">+displayStats()</text><text text-decoration="none" x="82" fill="#4b4b4b" font-size="10pt" font-family="noto_regular"  y="51"></text></g></g><g id="q4NJ9gbpThF"><g transform="translate(249.99999999999997 500.00000000000006)"><rect x="0" y="0" width="249.99999999999994" height="212.00000000000006" rx="2" ry="2" fill="rgb(54,171,214)" stroke="#000000" stroke-width="2" stroke-linecap="round" stroke-linejoin="round" stroke-dasharray="0 0"/><path d="M 0,30 L 249.99999999999994,30 M 0,58 L 249.99999999999994,58" fill="rgb(54,171,214)" stroke="#000000" stroke-width="2" stroke-linecap="round" stroke-linejoin="round" stroke-dasharray="0 0"/></g><g transform="translate(359.99999999999994, 505.00000000000006) rotate(0, 15, 0)" width="30" height="20"><text text-decoration="none" x="1" fill="#ffffff" font-size="10pt" font-family="lt_regular"  y="15">Main</text><text text-decoration="none" x="29" fill="#4b4b4b" font-size="10pt" font-family="noto_regular"  y="15"></text></g><g transform="translate(254.99999999999997, 535) rotate(0, 0, 0)" width="0" height="18"><text text-decoration="none" x="0" fill="#4b4b4b" font-size="10pt" font-family="noto_regular"  y="15"></text></g><g transform="translate(260, 563) rotate(0, 0, 0)" width="94" height="56"><text text-decoration="none" x="0" fill="#ffffff" font-size="10pt" font-family="lt_regular"  y="14">+sendMessage()</text><text text-decoration="none" x="92" fill="#ffffff" font-size="10pt" font-family="lt_regular"  y="14"></text><text text-decoration="none" x="0" fill="#ffffff" font-size="10pt" font-family="lt_regular"  y="32">+display()</text><text text-decoration="none" x="53" fill="#ffffff" font-size="10pt" font-family="lt_regular"  y="32"></text><text text-decoration="none" x="0" fill="#ffffff" font-size="10pt" font-family="lt_regular"  y="51">+displayStats()</text><text text-decoration="none" x="82" fill="#4b4b4b" font-size="10pt" font-family="noto_regular"  y="51"></text></g></g><g id="iXQJsBuJ9xW"><g transform="translate(400 359.99999999999994)"><path d="M 0,0 L 209.99999999999983,0 L 209.99999999999983,114.99999999999997 L 35,114.99999999999997 L 15,129.99999999999997 L 15,114.99999999999997 L 0,114.99999999999997 L 0,0 Z" fill="rgb(54,171,214)" stroke="#000000" stroke-width="2" stroke-linecap="round" stroke-linejoin="round" stroke-dasharray="0 0"/></g><g transform="translate(410, 405.9999999999999) rotate(0, 0, 19)" width="182" height="38"><text text-decoration="none" x="0" fill="#ffffff" font-size="10pt" font-family="lt_regular"  y="14">Calculate&#160;</text><text text-decoration="none" x="55" fill="#ffffff" font-size="10pt" font-family="lt_regular"  y="14">the&#160;</text><text text-decoration="none" x="77" fill="#ffffff" font-size="10pt" font-family="lt_regular"  y="14">required&#160;</text><text text-decoration="none" x="128" fill="#ffffff" font-size="10pt" font-family="lt_regular"  y="14">statistics&#160;</text><text text-decoration="none" x="0" fill="#ffffff" font-size="10pt" font-family="lt_regular"  y="33">from&#160;</text><text text-decoration="none" x="31" fill="#ffffff" font-size="10pt" font-family="lt_regular"  y="33">the&#160;</text><text text-decoration="none" x="53" fill="#ffffff" font-size="10pt" font-family="lt_regular"  y="33">Log&#160;</text><text text-decoration="none" x="77" fill="#ffffff" font-size="10pt" font-family="lt_regular"  y="33">Entries&#160;</text><text text-decoration="none" x="121" fill="#4b4b4b" font-size="10pt" font-family="noto_regular"  y="33"></text></g></g><g id="U6XsZhWBjwx"><g transform="translate(1149.9999999999998 500.00000000000006)"><rect x="0" y="0" width="250" height="300" rx="2" ry="2" fill="rgb(9,149,206)" stroke="#070707" stroke-width="2" stroke-linecap="round" stroke-linejoin="round" stroke-dasharray="0 0"/><path d="M 0,30 L 250,30 M 0,96 L 250,96" fill="rgb(9,149,206)" stroke="#070707" stroke-width="2" stroke-linecap="round" stroke-linejoin="round" stroke-dasharray="0 0"/></g><g transform="translate(1253.9999999999998, 505.00000000000006) rotate(0, 21, 0)" width="42" height="20"><text text-decoration="none" x="0" fill="#ffffff" font-size="10pt" font-family="lt_regular"  y="15">LogList</text><text text-decoration="none" x="42" fill="#4b4b4b" font-size="10pt" font-family="noto_regular"  y="15"></text></g><g transform="translate(1159.9999999999998, 535) rotate(0, 0, 0)" width="116" height="56"><text text-decoration="none" x="0" fill="#ffffff" font-size="10pt" font-family="lt_regular"  y="14">-FILENAME:&#160;</text><text text-decoration="none" x="76" fill="#ffffff" font-size="10pt" font-family="lt_regular"  y="14">String</text><text text-decoration="none" x="110" fill="#ffffff" font-size="10pt" font-family="lt_regular"  y="14"></text><text text-decoration="none" x="0" fill="#ffffff" font-size="10pt" font-family="lt_regular"  y="32">-TEMP:&#160;</text><text text-decoration="none" x="47" fill="#ffffff" font-size="10pt" font-family="lt_regular"  y="32">String</text><text text-decoration="none" x="81" fill="#ffffff" font-size="10pt" font-family="lt_regular"  y="32"></text><text text-decoration="none" x="0" fill="#ffffff" font-size="10pt" font-family="lt_regular"  y="50">+LOGENTRY:&#160;</text><text text-decoration="none" x="0" fill="#ffffff" font-size="10pt" font-family="lt_regular"  y="69">String</text><text text-decoration="none" x="34" fill="#4b4b4b" font-size="10pt" font-family="noto_regular"  y="69"></text></g><g transform="translate(1159.9999999999998, 601) rotate(0, 0, 0)" width="244" height="182"><text text-decoration="none" x="0" fill="#ffffff" font-size="10pt" font-family="lt_regular"  y="14">+addEntry()</text><text text-decoration="none" x="66" fill="#ffffff" font-size="10pt" font-family="lt_regular"  y="14"></text><text text-decoration="none" x="0" fill="#ffffff" font-size="10pt" font-family="lt_regular"  y="32">+deleteEntry()</text><text text-decoration="none" x="82" fill="#ffffff" font-size="10pt" font-family="lt_regular"  y="32"></text><text text-decoration="none" x="0" fill="#ffffff" font-size="10pt" font-family="lt_regular"  y="50">+warning()</text><text text-decoration="none" x="59" fill="#ffffff" font-size="10pt" font-family="lt_regular"  y="50"></text><text text-decoration="none" x="0" fill="#ffffff" font-size="10pt" font-family="lt_regular"  y="68">+loadFromFile(String&#160;</text><text text-decoration="none" x="121" fill="#ffffff" font-size="10pt" font-family="lt_regular"  y="68">filename):&#160;</text><text text-decoration="none" x="178" fill="#ffffff" font-size="10pt" font-family="lt_regular"  y="68">LogEntry[]</text><text text-decoration="none" x="239" fill="#ffffff" font-size="10pt" font-family="lt_regular"  y="68"></text><text text-decoration="none" x="0" fill="#ffffff" font-size="10pt" font-family="lt_regular"  y="86">+saveInFile(LogEntry&#160;</text><text text-decoration="none" x="124" fill="#ffffff" font-size="10pt" font-family="lt_regular"  y="86">logEntry)</text><text text-decoration="none" x="176" fill="#ffffff" font-size="10pt" font-family="lt_regular"  y="86"></text><text text-decoration="none" x="0" fill="#ffffff" font-size="10pt" font-family="lt_regular"  y="104">+saveInFile(String&#160;</text><text text-decoration="none" x="105" fill="#ffffff" font-size="10pt" font-family="lt_regular"  y="104">outputFile,&#160;</text><text text-decoration="none" x="169" fill="#ffffff" font-size="10pt" font-family="lt_regular"  y="104">String&#160;</text><text text-decoration="none" x="0" fill="#ffffff" font-size="10pt" font-family="lt_regular"  y="122">inputFile)</text><text text-decoration="none" x="52" fill="#ffffff" font-size="10pt" font-family="lt_regular"  y="122"></text><text text-decoration="none" x="0" fill="#ffffff" font-size="10pt" font-family="lt_regular"  y="140">+saveInFile(String&#160;</text><text text-decoration="none" x="105" fill="#ffffff" font-size="10pt" font-family="lt_regular"  y="140">outputFile,&#160;</text><text text-decoration="none" x="169" fill="#ffffff" font-size="10pt" font-family="lt_regular"  y="140">String&#160;</text><text text-decoration="none" x="0" fill="#ffffff" font-size="10pt" font-family="lt_regular"  y="158">inputFile,&#160;</text><text text-decoration="none" x="55" fill="#ffffff" font-size="10pt" font-family="lt_regular"  y="158">int&#160;</text><text text-decoration="none" x="73" fill="#ffffff" font-size="10pt" font-family="lt_regular"  y="158">position)</text><text text-decoration="none" x="121" fill="#ffffff" font-size="10pt" font-family="lt_regular"  y="158"></text><text text-decoration="none" x="0" fill="#ffffff" font-size="10pt" font-family="lt_regular"  y="177">+display()</text><text text-decoration="none" x="53" fill="#4b4b4b" font-size="10pt" font-family="noto_regular"  y="177"></text></g></g><g id="ZuurbPs2LNO"><g transform="translate(700 750)"><rect x="0" y="0" width="250" height="200.00000000000006" rx="2" ry="2" fill="rgb(99,201,213)" stroke="#000000" stroke-width="2" stroke-linecap="round" stroke-linejoin="round" stroke-dasharray="0 0"/><path d="M 0,30 L 250,30 M 0,150 L 250,150" fill="rgb(99,201,213)" stroke="#000000" stroke-width="2" stroke-linecap="round" stroke-linejoin="round" stroke-dasharray="0 0"/></g><g transform="translate(799, 755) rotate(0, 26, 0)" width="52" height="20"><text text-decoration="none" x="0" fill="#ffffff" font-size="10pt" font-family="lt_regular"  y="15">LogEntry</text><text text-decoration="none" x="53" fill="#4b4b4b" font-size="10pt" font-family="noto_regular"  y="15"></text></g><g transform="translate(710, 785) rotate(0, 0, 0)" width="155" height="110"><text text-decoration="none" x="0" fill="#ffffff" font-size="10pt" font-family="lt_regular"  y="14">+description:&#160;</text><text text-decoration="none" x="77" fill="#ffffff" font-size="10pt" font-family="lt_regular"  y="14">String</text><text text-decoration="none" x="111" fill="#ffffff" font-size="10pt" font-family="lt_regular"  y="14"></text><text text-decoration="none" x="0" fill="#ffffff" font-size="10pt" font-family="lt_regular"  y="32">+date:&#160;</text><text text-decoration="none" x="39" fill="#ffffff" font-size="10pt" font-family="lt_regular"  y="32">String</text><text text-decoration="none" x="73" fill="#ffffff" font-size="10pt" font-family="lt_regular"  y="32"></text><text text-decoration="none" x="0" fill="#ffffff" font-size="10pt" font-family="lt_regular"  y="50">+totalCalories:&#160;</text><text text-decoration="none" x="86" fill="#ffffff" font-size="10pt" font-family="lt_regular"  y="50">String</text><text text-decoration="none" x="120" fill="#ffffff" font-size="10pt" font-family="lt_regular"  y="50"></text><text text-decoration="none" x="0" fill="#ffffff" font-size="10pt" font-family="lt_regular"  y="68">+weightPerServing:&#160;</text><text text-decoration="none" x="116" fill="#ffffff" font-size="10pt" font-family="lt_regular"  y="68">String</text><text text-decoration="none" x="150" fill="#ffffff" font-size="10pt" font-family="lt_regular"  y="68"></text><text text-decoration="none" x="0" fill="#ffffff" font-size="10pt" font-family="lt_regular"  y="86">+caloriesPerServing:&#160;</text><text text-decoration="none" x="120" fill="#ffffff" font-size="10pt" font-family="lt_regular"  y="86">String</text><text text-decoration="none" x="154" fill="#ffffff" font-size="10pt" font-family="lt_regular"  y="86"></text><text text-decoration="none" x="0" fill="#ffffff" font-size="10pt" font-family="lt_regular"  y="105">+totalWeight:&#160;</text><text text-decoration="none" x="82" fill="#ffffff" font-size="10pt" font-family="lt_regular"  y="105">String</text><text text-decoration="none" x="116" fill="#4b4b4b" font-size="10pt" font-family="noto_regular"  y="105"></text></g><g transform="translate(705, 905) rotate(0, 0, 0)" width="0" height="18"><text text-decoration="none" x="0" fill="#4b4b4b" font-size="10pt" font-family="noto_regular"  y="15"></text></g></g><g id="MUtPiukrW66"><g transform="translate(850.0000000000001 610)"><path d="M 0,0 L 209.99999999999983,0 L 209.99999999999983,104.99999999999997 L 35,104.99999999999997 L 15,119.99999999999997 L 15,104.99999999999997 L 0,104.99999999999997 L 0,0 Z" fill="rgb(99,201,213)" stroke="#000000" stroke-width="2" stroke-linecap="round" stroke-linejoin="round" stroke-dasharray="0 0"/></g><g transform="translate(860.0000000000001, 651) rotate(0, 0, 19)" width="179" height="38"><text text-decoration="none" x="0" fill="#ffffff" font-size="10pt" font-family="lt_regular"  y="14">Store&#160;</text><text text-decoration="none" x="34" fill="#ffffff" font-size="10pt" font-family="lt_regular"  y="14">the&#160;</text><text text-decoration="none" x="56" fill="#ffffff" font-size="10pt" font-family="lt_regular"  y="14">attributes&#160;</text><text text-decoration="none" x="115" fill="#ffffff" font-size="10pt" font-family="lt_regular"  y="14">of&#160;</text><text text-decoration="none" x="130" fill="#ffffff" font-size="10pt" font-family="lt_regular"  y="14">an&#160;</text><text text-decoration="none" x="146" fill="#ffffff" font-size="10pt" font-family="lt_regular"  y="14">entry&#160;</text><text text-decoration="none" x="0" fill="#ffffff" font-size="10pt" font-family="lt_regular"  y="33">from&#160;</text><text text-decoration="none" x="31" fill="#ffffff" font-size="10pt" font-family="lt_regular"  y="33">the&#160;</text><text text-decoration="none" x="53" fill="#ffffff" font-size="10pt" font-family="lt_regular"  y="33">user&#160;</text><text text-decoration="none" x="81" fill="#4b4b4b" font-size="10pt" font-family="noto_regular"  y="33"></text></g></g><g id="XSYkc50DWpk"><g transform="translate(1299.9999999999998 359.9999999999999)"><path d="M 0,0 L 209.99999999999983,0 L 209.99999999999983,104.99999999999997 L 35,104.99999999999997 L 15,119.99999999999997 L 15,104.99999999999997 L 0,104.99999999999997 L 0,0 Z" fill="rgb(9,149,206)" stroke="#070707" stroke-width="2" stroke-linecap="round" stroke-linejoin="round" stroke-dasharray="0 0"/></g><g transform="translate(1309.9999999999998, 391.9999999999999) rotate(0, 0, 28)" width="185" height="56"><text text-decoration="none" x="0" fill="#ffffff" font-size="10pt" font-family="lt_regular"  y="14">Manage&#160;</text><text text-decoration="none" x="48" fill="#ffffff" font-size="10pt" font-family="lt_regular"  y="14">the&#160;</text><text text-decoration="none" x="70" fill="#ffffff" font-size="10pt" font-family="lt_regular"  y="14">Log&#160;</text><text text-decoration="none" x="94" fill="#ffffff" font-size="10pt" font-family="lt_regular"  y="14">Entries&#160;</text><text text-decoration="none" x="138" fill="#ffffff" font-size="10pt" font-family="lt_regular"  y="14">through&#160;</text><text text-decoration="none" x="0" fill="#ffffff" font-size="10pt" font-family="lt_regular"  y="32">adding,&#160;</text><text text-decoration="none" x="43" fill="#ffffff" font-size="10pt" font-family="lt_regular"  y="32">deleting,&#160;</text><text text-decoration="none" x="95" fill="#ffffff" font-size="10pt" font-family="lt_regular"  y="32">saving&#160;</text><text text-decoration="none" x="134" fill="#ffffff" font-size="10pt" font-family="lt_regular"  y="32">and&#160;</text><text text-decoration="none" x="0" fill="#ffffff" font-size="10pt" font-family="lt_regular"  y="51">loading</text><text text-decoration="none" x="40" fill="#4b4b4b" font-size="10pt" font-family="noto_regular"  y="51"></text></g></g><g id="nmZLeZVzGER"><g><path d="M 425,191 L 700,351" fill="none" stroke="#2D94E4" stroke-width="2" stroke-linecap="round" stroke-linejoin="round" stroke-dasharray="0 0"/><path d="M 700,351 L 695.3919539508496,341.6489156597436 L 689.5912586603457,351.5787663205907 Z" fill="rgb(45,148,228)" stroke="#2D94E4" stroke-width="2" stroke-linecap="round" stroke-linejoin="round"/></g></g><g id="j2idN8WVkCF"><g><path d="M 950,402 L 1151,572" fill="none" stroke="#2D94E4" stroke-width="2" stroke-linecap="round" stroke-linejoin="round" stroke-dasharray="0 0"/><path d="M 1151,572 L 1148.0754160743002,561.9938181312142 L 1140.647615668538,570.7732133912625 Z" fill="rgb(45,148,228)" stroke="#2D94E4" stroke-width="2" stroke-linecap="round" stroke-linejoin="round"/></g></g><g id="hcPmoVPqqdY"><g><path d="M 700,402 L 500,606" fill="none" stroke="#2D94E4" stroke-width="2" stroke-linecap="round" stroke-linejoin="round" stroke-dasharray="0 0"/><path d="M 500,606 L 510.1934963113949,603.816081576785 L 501.98165866123225,595.7652603511353 Z" fill="rgb(45,148,228)" stroke="#2D94E4" stroke-width="2" stroke-linecap="round" stroke-linejoin="round"/></g></g><g id="MAzsGQtkLqH"><mask id="d3d08" x="936" y="711" width="228" height="103" maskUnits="userSpaceOnUse"><rect x="936" y="711" width="228" height="103" fill="white" /><rect x="965.5" y="787" width="29" height="26" fill="black" /><rect x="1113" y="712" width="14" height="26" fill="black" /></mask><g mask="url(#d3d08)"><path d="M 950,800 L 1050,800 L 1050,763 L 1050,725 L 1150,725" fill="none" stroke="#2D94E4" stroke-width="2" stroke-linecap="round" stroke-linejoin="round" stroke-dasharray="0 0"/><path d="M 1150,725 L 1141.304347826087,719.25 L 1141.304347826087,730.75 Z" fill="rgb(45,148,228)" stroke="#2D94E4" stroke-width="2" stroke-linecap="round" stroke-linejoin="round"/></g><g transform="translate(968.5, 790)" width="23" height="20"><text text-decoration="none" x="0" fill="#4b4b4b" font-size="10pt" font-family="lt_regular"  y="15">0...*</text><text text-decoration="none" x="23" fill="#4b4b4b" font-size="10pt" font-family="noto_regular"  y="15"></text></g><g transform="translate(1116, 715)" width="8" height="20"><text text-decoration="none" x="0" fill="#4b4b4b" font-size="10pt" font-family="lt_regular"  y="15">1</text><text text-decoration="none" x="8" fill="#4b4b4b" font-size="10pt" font-family="noto_regular"  y="15"></text></g></g></svg>